<svg xmlns="http://www.w3.org/2000/svg" fill="none" viewBox="0 0 103 28"><path fill="#000" d="M95.808 9.596h2.917v12.11h-2.917zM98.726 5h-2.917v1.37l1.502 1.547h1.415zM78.13 21.706h-2.916V9.596h2.917v1.105c1.768-1.944 5.038-1.989 6.187 0 2.608-2.386 8.574-1.989 8.574 2.298v8.707h-2.917v-8.044c0-2.298-3.094-2.475-4.42-.442v8.486H82.64v-8.044c0-2.121-2.961-2.652-4.508-.442z"/><path fill="#000" fill-rule="evenodd" d="M69.38 9.596h2.918v12.11H69.38v-1.481c-2.961 3.779-10.122 1.613-10.166-4.53s7.071-8.22 10.166-4.84zm-7.16 5.855c0 5.503 7.072 4.884 7.072-.021s-7.072-4.73-7.072.021M54 9.596h2.916V20.69c0 8.132-12.816 7.116-12.816 1.017h2.917c.795 3.226 6.982 3.226 6.982-1.15v-.309c-3.005 3.006-9.855 1.503-9.9-4.64-.043-6.143 6.807-8.088 9.9-4.729zm-6.983 5.878c0 4.994 7.07 4.906 7.027 0 0-4.773-7.027-4.994-7.027 0" clip-rule="evenodd"/><path fill="#000" d="M38.267 9.596h2.917v12.11h-2.917zM38.267 5h2.916v1.37l-1.502 1.547h-1.414zM28.19 9.596v12.11h2.916v-6.541c0-1.017.928-3.27 3.448-3.27h.795V9.595h-1.944c-.796 0-1.768.354-2.299 1.414V9.596z"/><path fill="#fff" d="M2 6h20v20H2z"/><path fill="#23cfa6" d="M3.25 7.25h17.5v17.5H3.25z" opacity=".4"/><path fill="#23cfa6" d="m12 16 8.75 8.75V7.25z"/><path fill="#23cfa6" d="m12 16 8.75-8.75H3.25z" opacity=".5"/></svg>
