<svg xmlns="http://www.w3.org/2000/svg"  fill="none" viewBox="0 0 93 55"><path fill="#000" d="M8.413 33.892q-1.89 0-3.152-1.296Q4 31.3 4 28.542q0-2.46.962-5.15.996-2.726 2.92-4.586 1.958-1.894 4.646-1.894 1.36 0 2.024.465t.664 1.23v.132l1.626-7.642 4.91-.665-3.815 17.944a4.1 4.1 0 0 0-.133 1.063q0 .664.299.964.331.266 1.061.266.93 0 1.593-.798.698-.797 1.095-2.126h1.394q-2.025 5.948-6.67 5.948-1.36 0-2.223-.731-.83-.732-1.029-2.127a7.9 7.9 0 0 1-2.09 2.193q-1.196.864-2.82.864m2.157-3.223q.796 0 1.593-.731.83-.732 1.128-2.027v-.167l1.626-7.609q-.298-1.163-1.36-1.163-1.328 0-2.39 1.562-1.06 1.529-1.659 3.722-.597 2.16-.597 3.82 0 1.662.465 2.127.497.465 1.194.466"/><path fill="#000" d="M26.61 33.892q-2.455 0-3.816-1.263-1.36-1.296-1.36-4.02 0-2.294.896-5.051a11.6 11.6 0 0 1 2.92-4.752q2.025-2.028 5.143-2.027 3.65 0 3.65 3.19a5.96 5.96 0 0 1-1.062 3.422q-1.062 1.563-2.82 2.526a9.25 9.25 0 0 1-3.75 1.063 25 25 0 0 0-.066 1.33q0 1.628.564 2.226.564.565 1.825.565 1.791 0 3.053-.831 1.295-.831 2.82-2.526h1.129q-3.684 6.148-9.126 6.148m.067-8.507q1.227-.066 2.322-.864a5.85 5.85 0 0 0 1.792-2.027 5.2 5.2 0 0 0 .697-2.592q0-1.362-.83-1.362-1.194 0-2.355 2.093-1.13 2.094-1.626 4.752"/><path fill="#000" d="M38.383 33.892q-1.593 0-2.688-.598-1.095-.632-1.626-1.595a4.3 4.3 0 0 1-.53-2.06q0-1.097.53-1.895.498-.83 1.228-1.196a43 43 0 0 0 2.257-4.685 69 69 0 0 0 1.825-5.15l4.91-.665q.167 4.253.565 9.204.166 1.994.166 2.891 0 .764-.133 1.263 1.56-.897 2.389-1.662h1.394q-2.124 2.46-5.077 4.154-.962 1.03-2.39 1.529-1.393.465-2.82.465m-1.062-2.625q1.229 0 2.058-.731.83-.731.83-2.36 0-.996-.2-2.79-.332-3.788-.431-5.085-.797 2.625-2.688 6.28.763.4.763 1.163 0 .633-.431 1.13a1.26 1.26 0 0 1-1.029.499q-.697 0-.896-.432 0 1.196.465 1.761.496.565 1.56.565"/><path fill="#000" d="M52.812 15.284q-1.096 0-1.858-.765a2.53 2.53 0 0 1-.763-1.86q0-1.097.763-1.862A2.48 2.48 0 0 1 52.812 10q1.096 0 1.858.797.797.765.797 1.861t-.797 1.861a2.53 2.53 0 0 1-1.858.765m-2.256 18.608q-1.593 0-2.589-.997-.962-.997-.962-2.99 0-.831.265-2.16l2.257-10.667h4.778l-2.389 11.298a4.1 4.1 0 0 0-.133 1.063q0 .664.299.964.331.266 1.062.266.962 0 1.792-.798.829-.83 1.194-2.126h1.394q-1.229 3.588-3.152 4.884-1.925 1.263-3.816 1.263"/><path fill="#000" d="M61.99 42q-1.592 0-2.654-.83-1.062-.832-1.062-2.393 0-1.895 1.526-3.057 1.527-1.13 3.883-1.895l.398-1.76q-1.693 1.827-3.982 1.827-1.892 0-3.152-1.296t-1.261-4.054q0-2.46.962-5.15.996-2.726 2.92-4.586 1.958-1.894 4.646-1.894 1.36 0 2.024.465t.663 1.23v.199l.365-1.728h4.779L68.76 32.496q1.592-.531 2.555-1.595.962-1.062 1.626-3.157h1.393q-.895 2.958-2.422 4.354a8.2 8.2 0 0 1-3.451 1.86l-.498 2.393q-.663 3.223-2.29 4.42A5.95 5.95 0 0 1 61.99 42m.266-11.331q.764 0 1.56-.698.795-.698 1.094-1.894l1.693-7.876q0-.398-.332-.797-.331-.432-1.029-.432-1.327 0-2.389 1.562-1.061 1.529-1.659 3.722-.597 2.16-.597 3.82 0 1.662.464 2.127.498.465 1.195.466m-1.029 8.74q.564 0 1.095-.765.53-.764.83-2.193l.199-.964q-3.252 1.196-3.252 2.825 0 .431.299.764.298.332.83.332"/><path fill="#000" d="M84.35 33.892q-1.758 0-2.555-1.063-.796-1.064-.796-2.692 0-.698.165-1.562.167-.897.332-1.728.199-.83.266-1.063.266-1.163.497-2.293.233-1.13.233-1.827 0-1.695-1.195-1.695-.863 0-1.526.864-.665.831-1.062 2.193l-2.257 10.667h-4.778l3.517-16.615h4.779l-.365 1.728q1.659-1.86 3.882-1.861 1.692 0 2.688.93.995.93.995 2.825 0 .963-.232 2.16a58 58 0 0 1-.663 2.858 89 89 0 0 0-.498 2.026q-.2.964-.2 1.53 0 .663.3 1.03.297.365 1.028.365.796 0 1.095-.2-.2 1.695-1.228 2.559-.994.864-2.422.864"/></svg>
